<?xml version="1.0" standalone="no"?>
<!DOCTYPE svg PUBLIC "-//W3C//DTD SVG 20010904//EN"
 "http://www.w3.org/TR/2001/REC-SVG-20010904/DTD/svg10.dtd">
<svg version="1.0" xmlns="http://www.w3.org/2000/svg"
 width="1500.000000pt" height="1500.000000pt" viewBox="0 0 1500.000000 1500.000000"
 preserveAspectRatio="xMidYMid meet">
<g transform="translate(0.000000,1500.000000) scale(0.100000,-0.100000)"
fill="#000000" stroke="none">
<path d="M2440 12246 c-18 -50 -54 -149 -80 -221 -27 -71 -141 -386 -255 -700
-114 -313 -229 -628 -255 -700 -26 -71 -98 -269 -159 -440 -62 -170 -117 -321
-123 -335 -8 -21 -53 -144 -115 -315 -55 -153 -287 -792 -340 -935 -35 -96
-71 -195 -80 -220 -8 -25 -19 -54 -24 -65 -5 -11 -38 -103 -74 -205 -36 -102
-72 -201 -80 -220 -7 -19 -25 -69 -40 -110 -15 -41 -31 -86 -37 -100 -5 -14
-32 -86 -59 -160 -26 -74 -62 -173 -79 -220 -48 -130 -59 -162 -75 -206 -8
-23 -42 -115 -76 -205 -33 -90 -62 -171 -64 -179 -5 -18 -210 -582 -230 -630
-26 -64 -135 -372 -135 -381 0 -9 426 -5 473 5 15 3 38 8 52 11 14 3 37 8 53
11 47 9 174 54 232 81 238 112 448 319 569 560 17 35 31 65 31 68 1 6 2 9 59
165 117 320 313 856 316 870 5 15 171 473 182 500 3 8 7 17 8 20 1 3 4 12 8
20 17 43 68 187 72 200 2 8 36 103 76 210 39 107 83 227 96 265 13 39 28 79
33 90 5 11 33 87 62 168 l54 148 58 -158 c32 -87 78 -212 102 -278 25 -66 47
-127 48 -135 2 -9 18 -51 34 -95 17 -44 58 -156 92 -250 33 -93 64 -177 67
-185 3 -8 7 -19 8 -25 2 -5 14 -39 28 -75 14 -36 40 -105 57 -155 44 -122 97
-269 120 -330 24 -63 206 -563 229 -630 10 -27 73 -201 140 -385 68 -184 127
-346 132 -360 4 -14 21 -61 37 -105 16 -44 119 -327 230 -630 110 -302 212
-584 227 -625 15 -41 31 -84 35 -95 5 -11 50 -135 100 -275 50 -140 95 -264
100 -275 5 -11 57 -153 115 -315 143 -398 156 -429 222 -528 174 -264 449
-443 794 -518 18 -4 237 -9 485 -11 l451 -4 32 88 c18 48 36 97 41 108 9 22
129 354 191 530 22 61 43 119 48 130 8 16 154 418 628 1725 19 52 52 142 73
200 21 58 57 157 79 220 23 63 46 124 51 135 5 11 16 40 24 65 20 62 125 351
136 375 5 11 61 166 125 345 64 179 127 352 140 385 13 33 26 71 30 85 4 14
13 39 20 55 7 17 27 68 44 115 16 47 55 153 85 235 88 242 289 795 361 995 37
102 79 219 95 260 46 121 131 354 135 370 2 8 4 17 5 20 1 3 19 -44 41 -105
22 -60 43 -117 46 -125 3 -8 7 -19 9 -25 2 -5 100 -275 219 -600 119 -324 223
-610 231 -635 8 -25 19 -54 24 -65 5 -11 50 -135 100 -275 50 -140 95 -264
100 -275 8 -17 262 -714 322 -885 36 -101 179 -494 215 -590 19 -52 54 -149
78 -215 23 -66 59 -163 78 -215 19 -52 56 -152 81 -222 25 -70 52 -144 60
-165 49 -132 88 -239 116 -318 17 -49 37 -106 45 -125 16 -40 75 -202 135
-370 22 -63 45 -124 50 -135 5 -11 23 -58 39 -105 108 -312 145 -394 228 -505
115 -154 259 -274 430 -359 51 -25 98 -46 106 -46 7 0 17 -4 23 -9 13 -12 115
-38 218 -56 70 -12 176 -15 505 -15 l416 0 67 183 c36 100 88 241 114 312 60
166 55 152 266 730 98 270 181 497 183 505 4 18 142 396 155 425 5 11 41 110
80 220 39 110 85 236 102 280 30 80 60 161 157 435 29 80 57 156 62 170 11 24
82 218 119 325 10 28 71 194 135 370 65 176 123 338 131 360 7 22 47 132 89
245 42 113 78 212 80 220 4 13 392 1080 422 1160 3 8 7 20 9 25 1 6 39 108 83
228 45 121 81 224 81 229 0 11 -434 5 -480 -6 -14 -3 -38 -9 -55 -11 -55 -10
-169 -46 -240 -77 -300 -130 -553 -394 -645 -674 -12 -38 -25 -73 -29 -79 -3
-5 -6 -14 -7 -20 -2 -10 -58 -164 -71 -195 -3 -8 -7 -19 -9 -25 -1 -5 -37
-102 -79 -215 -42 -113 -78 -212 -80 -220 -2 -8 -15 -46 -30 -85 -14 -38 -46
-124 -70 -190 -24 -66 -59 -163 -78 -215 -19 -52 -47 -129 -62 -170 -14 -41
-42 -115 -60 -165 -42 -111 -268 -734 -349 -961 -50 -139 -46 -139 -94 -1 -68
192 -99 277 -127 352 -14 39 -91 248 -169 465 -79 217 -166 456 -194 530 -27
74 -102 281 -167 460 -64 179 -131 361 -147 405 -17 44 -38 103 -48 130 -10
28 -22 59 -26 70 -4 11 -8 22 -9 25 -7 27 -29 87 -36 95 -4 6 -10 22 -13 37
-2 14 -9 35 -14 45 -5 10 -21 54 -36 98 -15 44 -31 89 -36 100 -5 11 -30 79
-55 150 -25 72 -51 141 -57 155 -6 14 -22 57 -35 95 -14 39 -33 93 -43 120
-10 28 -34 93 -53 145 -19 52 -82 228 -141 390 -59 162 -116 318 -126 345 -30
78 -162 439 -164 450 -2 6 -6 17 -9 25 -4 8 -43 116 -87 240 -45 124 -85 234
-90 245 -9 21 -55 149 -140 385 -29 80 -67 186 -85 235 -18 50 -77 209 -129
355 -53 146 -99 272 -103 280 -3 8 -7 20 -9 25 -1 6 -12 35 -23 65 l-19 55
-691 1 c-625 1 -691 0 -696 -15 -4 -9 -63 -171 -132 -361 -69 -190 -137 -374
-150 -410 -13 -36 -28 -76 -33 -90 -4 -14 -90 -250 -190 -525 -100 -275 -193
-529 -206 -565 -12 -36 -77 -213 -144 -395 -66 -181 -123 -337 -125 -345 -2
-8 -130 -361 -285 -785 -155 -423 -292 -799 -304 -835 -26 -74 -169 -467 -222
-610 -56 -151 -70 -190 -103 -280 -16 -47 -53 -148 -82 -225 -28 -77 -98 -270
-156 -430 -58 -159 -127 -348 -153 -420 -26 -71 -69 -190 -95 -262 -26 -73
-50 -133 -54 -133 -3 0 -14 24 -24 53 -16 45 -34 96 -63 172 -4 11 -8 27 -10
35 -2 8 -7 23 -13 35 -6 11 -65 171 -131 355 -67 184 -136 376 -154 425 -19
50 -190 520 -380 1045 -191 525 -351 964 -356 975 -7 16 -101 274 -246 680
-14 39 -30 81 -35 94 -6 13 -30 81 -55 150 -25 69 -79 216 -119 326 -40 110
-130 358 -200 550 -69 193 -150 415 -180 495 -29 80 -103 285 -165 455 -61
171 -116 319 -121 330 -4 11 -27 72 -49 135 -23 63 -53 147 -66 185 -14 39
-32 88 -41 110 -8 22 -19 50 -23 61 l-8 21 -690 0 -689 0 -33 -91z"/>
</g>
</svg>
